<svg width="20" height="19" viewBox="0 0 20 19" fill="none" xmlns="http://www.w3.org/2000/svg">
<path fill-rule="evenodd" clip-rule="evenodd" d="M19.9614 13.6252V9.5538V0.680176H2.94016L0.8125 2.97688V15.0868H6.13165V18.845H8.47207L11.0253 16.1307H17.4082L19.9614 13.6252ZM7.40816 13.4165H4.0039C3.76986 13.4165 3.57837 13.2286 3.57837 12.9989V2.76817C3.57837 2.5385 3.76986 2.35059 4.0039 2.35059H17.6209C17.855 2.35059 18.0465 2.5385 18.0465 2.76817V10.7022C18.0465 10.8171 18.0039 10.9215 17.9241 10.9998L15.5837 13.2965C15.5039 13.3748 15.3922 13.4165 15.2805 13.4165H11.3709L8.07305 15.6401C8.0039 15.6871 7.91879 15.7132 7.83369 15.7132C7.76454 15.7132 7.70071 15.6976 7.63688 15.6662C7.49326 15.5932 7.40816 15.4522 7.40816 15.2956V13.4165Z" fill="white"/>
</svg>
