<svg width="12" height="12" viewBox="0 0 12 12" fill="none" xmlns="http://www.w3.org/2000/svg">
<path d="M11.0096 0.991455C9.68781 -0.330485 7.54885 -0.330485 6.2286 0.991455L4.71461 2.50559L5.51145 3.3025L7.02544 1.78837C7.86602 0.947702 9.2847 0.858636 10.2128 1.78837C11.1424 2.7181 11.0534 4.13536 10.2128 4.97602L8.69879 6.49016L9.49719 7.28864L11.0112 5.7745C12.3299 4.45256 12.3299 2.31339 11.0096 0.991455ZM4.9771 10.2138C4.13652 11.0544 2.71784 11.1435 1.78976 10.2138C0.860114 9.28405 0.949172 7.86679 1.78976 7.02612L3.30375 5.51199L2.50535 4.71351L0.991358 6.22765C-0.330453 7.54959 -0.330453 9.68875 0.991358 11.0091C2.31317 12.3295 4.45213 12.3311 5.77237 11.0091L7.28636 9.49499L6.48953 8.69808L4.9771 10.2138ZM2.06787 1.27272C2.04438 1.24945 2.01265 1.2364 1.97959 1.2364C1.94653 1.2364 1.91481 1.24945 1.89131 1.27272L1.27259 1.8915C1.24933 1.91499 1.23628 1.94672 1.23628 1.97978C1.23628 2.01285 1.24933 2.04457 1.27259 2.06807L9.93467 10.731C9.98311 10.7794 10.0628 10.7794 10.1112 10.731L10.7299 10.1122C10.7784 10.0638 10.7784 9.98408 10.7299 9.93564L2.06787 1.27272Z" fill="white"/>
</svg>
