<svg width="15" height="15" viewBox="0 0 15 15" fill="none" xmlns="http://www.w3.org/2000/svg">
<path d="M13.762 1.23932C12.1098 -0.413106 9.43606 -0.413106 7.78575 1.23932L5.89327 3.13199L6.88931 4.12813L8.7818 2.23546C9.83253 1.18463 11.6059 1.07329 12.766 2.23546C13.928 3.39763 13.8167 5.1692 12.766 6.22003L10.8735 8.1127L11.8715 9.1108L13.764 7.21813C15.4123 5.5657 15.4123 2.89174 13.762 1.23932ZM6.22138 12.7672C5.17065 13.8181 3.39729 13.9294 2.2372 12.7672C1.07514 11.6051 1.18647 9.83349 2.2372 8.78266L4.12968 6.88999L3.13168 5.89189L1.2392 7.78456C-0.413066 9.43699 -0.413066 12.1109 1.2392 13.7614C2.89146 15.4119 5.56516 15.4138 7.21547 13.7614L9.10795 11.8687L8.11191 10.8726L6.22138 12.7672Z" fill="white"/>
<path d="M3.5 11.5L11.5 3.5" stroke="white" stroke-width="1.6"/>
</svg>
